<svg width="64" height="59" viewBox="0 0 64 59" fill="none" xmlns="http://www.w3.org/2000/svg">
<path d="M0.0679955 46.7311L5.66499e-06 19.9168C-0.00330083 18.5974 1.44143 17.7055 2.74171 18.224L28.905 28.659C29.628 28.9474 30.0976 29.6095 30.0994 30.343L30.1674 57.1574C30.1707 58.4769 28.726 59.3688 27.4257 58.8502L1.26247 48.4152C0.539481 48.1269 0.0697521 47.4648 0.0679955 46.7311ZM60.0133 21.179L35.8694 30.9348L35.9322 55.75L60.0762 45.9942L60.0133 21.179ZM60.9903 17.944C62.028 17.9416 62.9593 18.7204 62.9619 19.7778L63.0299 46.5921C63.0317 47.3257 62.5654 47.99 61.8439 48.2814L35.7339 58.8318C35.4763 58.9358 35.2124 58.9844 34.9555 58.9851C33.9176 58.9873 32.9862 58.2086 32.9836 57.1513L32.9157 30.3369C32.9137 29.6033 33.3801 28.939 34.1018 28.6476L60.2117 18.0973C60.4693 17.9931 60.7331 17.9446 60.9903 17.944ZM31.324 2.84068L6.27883 13.2741L31.3766 23.5967L56.4218 13.1634L31.324 2.84068ZM31.3169 4.77602e-06C31.5888 -0.000573655 31.861 0.0513887 32.1154 0.155988L59.6423 11.4777C61.2038 12.1201 61.209 14.1855 59.6507 14.8346L32.1815 26.2778C31.9277 26.3836 31.6558 26.4367 31.3837 26.4374C31.1118 26.438 30.8396 26.386 30.5852 26.2814L3.05841 14.9597C1.49681 14.3174 1.49165 12.2518 3.04983 11.6027L30.519 0.159555C30.7728 0.0537988 31.0447 0.000583207 31.3169 4.77602e-06Z" fill="black" fill-opacity="0.87"/>
</svg>
